<?xml version="1.0" encoding="UTF-8"?>
<svg width="24px" height="24px" viewBox="0 0 24 24" version="1.1" xmlns="http://www.w3.org/2000/svg" xmlns:xlink="http://www.w3.org/1999/xlink">
    <path fill="#ffffff" transform="translate(0.000000, 1.000000)" d="M16,3.8 C16.99,3.8 17.8,2.99 17.8,2 C17.8,1.01 16.99,0.2 16,0.2 C15,0.2 14.2,1.01 14.2,2 C14.2,2.99 15,3.8 16,3.8 L16,3.8 Z M19,11 C16.24,11 14,13.24 14,16 C14,18.76 16.24,21 19,21 C21.76,21 24,18.76 24,16 C24,13.24 21.76,11 19,11 L19,11 Z M19,19.5 C17.07,19.5 15.5,17.93 15.5,16 C15.5,14.07 17.07,12.5 19,12.5 C20.93,12.5 22.5,14.07 22.5,16 C22.5,17.93 20.93,19.5 19,19.5 L19,19.5 Z M14.8,9 L19,9 L19,7.2 L15.8,7.2 L13.87,3.93 C13.57,3.43 13.03,3.1 12.41,3.1 C11.94,3.1 11.52,3.29 11.21,3.6 L7.51,7.3 C7.19,7.6 7,8.03 7,8.5 C7,9.13 7.33,9.66 7.85,9.97 L11.2,12 L11.2,17 L13,17 L13,10.52 L10.75,8.85 L13.07,6.52 L14.8,9 L14.8,9 Z M5,11 C2.24,11 0,13.24 0,16 C0,18.76 2.24,21 5,21 C7.76,21 10,18.76 10,16 C10,13.24 7.76,11 5,11 L5,11 Z M5,19.5 C3.07,19.5 1.5,17.93 1.5,16 C1.5,14.07 3.07,12.5 5,12.5 C6.93,12.5 8.5,14.07 8.5,16 C8.5,17.93 6.93,19.5 5,19.5 L5,19.5 Z" id="Shape"></path>
</svg>
