<?xml version="1.0" encoding="UTF-8"?>
<svg width="24px" height="24px" viewBox="0 0 24 24" version="1.1" xmlns="http://www.w3.org/2000/svg" xmlns:xlink="http://www.w3.org/1999/xlink">
    <path fill="#4C4C4C" d="M6.40128,5 C5.95872,5 5.59872,5.36 5.59872,5.79872 L5.59872,18.60128 C5.59872,19.04 5.95872,19.4 6.40128,19.4 L8.80128,19.4 L8.80128,13.80128 L15.19872,13.80128 L15.19872,19.4 L17.59872,19.4 C18.04128,19.4 18.40128,19.04 18.40128,18.60128 L18.40128,5.79872 C18.40128,5.36 18.04128,5 17.59872,5 L15.19872,5 L15.19872,10.59872 L8.80128,10.59872 L8.80128,5 L6.40128,5 Z M2.4,7.4 C1.95744,7.4 1.60128,7.76 1.60128,8.19872 L1.60128,10.59872 L0,10.59872 L0,13.80128 L1.60128,13.80128 L1.60128,16.20128 C1.60128,16.64 1.95744,17 2.4,17 L4.00128,17 L4.00128,7.4 L2.4,7.4 Z M19.99872,7.4 L19.99872,17 L21.6,17 C22.04256,17 22.39872,16.64 22.39872,16.20128 L22.39872,13.80128 L24,13.80128 L24,10.59872 L22.39872,10.59872 L22.39872,8.19872 C22.39872,7.76 22.04256,7.4 21.6,7.4 L19.99872,7.4 Z">
    </path>
</svg>
