<?xml version="1.0" encoding="UTF-8"?>
<svg width="24px" height="24px" viewBox="0 0 24 24" version="1.1" xmlns="http://www.w3.org/2000/svg" xmlns:xlink="http://www.w3.org/1999/xlink">
    <path fill="#ffffff" d="M20.8535132,12.199219 L18.9628882,9.242188 C18.9785132,5.492188 15.9824192,2 10.9824192,2 C5.9824192,2 3.5058572,5.433594 3.0644502,8.972656 C2.7910132,11.160156 3.4042942,13.195313 4.5878882,14.777344 C5.4511692,15.933594 6.0019502,17.300781 6.0019502,18.742188 L6.0019502,22 L14.9824192,22 L14.9824192,19 L16.9824192,19 C18.0878882,19 18.9824192,18.105469 18.9824192,17 L18.9824192,14 L20.4902322,13.371094 C20.9511692,13.175781 21.1230442,12.617188 20.8535132,12.199219 Z M12.5449192,14.71875 C12.5449192,15.117188 12.2011692,15.4375 11.7792942,15.4375 C11.7792942,15.835938 11.4355442,16.15625 11.0136692,16.15625 C10.5917942,16.15625 10.2480442,15.835938 10.2480442,15.4375 C9.8261692,15.4375 9.4824192,15.117188 9.4824192,14.71875 L9.4824192,14 L12.5449192,14 L12.5449192,14.71875 Z M12.4824192,12.710938 L12.4824192,13 L9.4824192,13 L9.4824192,12.710938 C9.4824192,11.488281 7.9824192,10.917969 7.9824192,9.203125 C7.9824192,7.570313 9.3261692,6.25 10.9824192,6.25 C12.6386692,6.25 13.9824192,7.570313 13.9824192,9.203125 C13.9824192,10.914063 12.4824192,11.5 12.4824192,12.710938 Z"></path>
</svg>
