<?xml version="1.0" encoding="UTF-8"?>
<svg width="24px" height="24px" viewBox="0 0 24 24" version="1.1" xmlns="http://www.w3.org/2000/svg" xmlns:xlink="http://www.w3.org/1999/xlink">
  <path fill="#4C4C4C" d="M9.6875,2.00013887 C9.085938,2.10170187 8.386719,2.50013887 7.6875,3.00013887 C5.585938,3.19935787 2.8125,4.60560787 2.8125,7.90638887 C2.8125,8.70716987 2.804688,9.10560787 2.90625,9.40638887 C2.507813,9.90638887 2,10.9063889 2,12.9063889 C2,13.4063889 2.289063,13.8868579 2.6875,14.1876389 L5.09375,15.5001389 C5.292969,15.6017019 5.605469,15.6876389 5.90625,15.6876389 C6.007813,15.6876389 6.3125,15.1876389 6.3125,15.1876389 L6.3125,16.0001389 C6.3125,16.3009199 6.1875,16.4884199 6.1875,16.6876389 C6.085938,17.0860769 6.09375,17.3985769 6.09375,18.0001389 C6.09375,19.6017019 7.8125,20.9923269 8.8125,21.5938889 C9.113281,21.8946699 9.386719,22.0001389 9.6875,22.0001389 L14.3125,22.0001389 C14.613281,22.0001389 14.886719,21.8868579 15.1875,21.6876389 C16.1875,20.9884199 17.8125,19.5938889 17.8125,18.0938889 C17.8125,17.4923269 17.789063,17.2110769 17.6875,16.8126389 C17.6875,16.6134199 17.59375,16.3946699 17.59375,16.0938889 L17.59375,15.3126389 C17.59375,15.3126389 17.898438,15.8126389 18,15.8126389 C18.300781,15.8126389 18.511719,15.6954519 18.8125,15.5938889 L21.1875,14.3126389 C21.6875,14.0118579 21.90625,13.5001389 21.90625,13.0001389 C22.007813,10.8985769 21.492188,9.90638887 21.09375,9.40638887 C21.09375,9.10560787 21.1875,8.70716987 21.1875,7.90638887 C21.1875,4.60560787 18.414063,3.19935787 16.3125,3.00013887 C15.613281,2.50013887 14.914063,2.19545187 14.3125,2.09388887 L10,2.09388887 C9.898438,1.99232687 9.789063,2.00013887 9.6875,2.00013887 Z M9.90625,3.59388887 L13.90625,3.59388887 C14.304688,3.69545187 14.8125,3.91420187 15.3125,4.31263887 L15.59375,4.50013887 L16,4.50013887 C16.398438,4.50013887 19.5,4.90638887 19.5,7.90638887 C19.5,8.50795187 19.507813,8.88685787 19.40625,9.18763887 L19.3125,9.68763887 L19.59375,10.0938889 C19.792969,10.3946699 20.1875,11.1056079 20.1875,12.9063889 L18.59375,14.0001389 C17.492188,13.8985769 17.199219,12.3946699 17,12.0938889 C16.800781,14.1954519 16.1875,15.1876389 16.1875,15.1876389 L16.1875,16.3126389 C16.1875,16.6134199 16.3125,16.8009199 16.3125,17.0001389 C16.3125,17.3985769 16.40625,17.5938889 16.40625,18.0938889 C16.40625,18.6954519 15.605469,19.6993579 14.40625,20.5001389 L9.8125,20.5001389 C8.613281,19.6993579 7.8125,18.6954519 7.8125,18.0938889 C7.8125,17.5938889 7.804688,17.3985769 7.90625,17.0001389 C7.90625,16.8009199 8,16.6134199 8,16.3126389 L8,15.1876389 C8,15.1876389 7.09375,14.0938889 7.09375,12.0938889 C6.492188,13.0938889 5.5,14.0001389 5.5,14.0001389 L3.59375,13.0001389 C3.59375,11.3009199 4.085938,10.5118579 4.1875,10.3126389 L4.5,9.90638887 L4.40625,9.18763887 C4.40625,8.88685787 4.3125,8.40638887 4.3125,7.90638887 C4.3125,4.90638887 7.511719,4.50013887 7.8125,4.50013887 L8.1875,4.50013887 L8.5,4.31263887 C9,3.91420187 9.507813,3.69545187 9.90625,3.59388887 Z M12,8.00013887 C12,8.00013887 11.605469,10.2110769 11.40625,10.3126389 C11.304688,10.4142019 10.6875,10.5860769 9.6875,10.6876389 L9.1875,10.6876389 C8.886719,10.6876389 8.710938,10.7071699 8.3125,10.4063889 C7.8125,10.2071699 7,8.90638887 7,8.90638887 L7,9.31263887 C7,9.31263887 7.300781,10.4142019 7.5,10.8126389 C8.101563,11.9142019 8.613281,12.0001389 9.8125,12.0001389 C10.414063,12.0001389 12,11.9884199 12,11.1876389 C12,11.9884199 13.585938,12.0001389 14.1875,12.0001389 C15.488281,12.0001389 15.992188,11.9142019 16.59375,10.8126389 C16.792969,10.4142019 17.09375,9.31263887 17.09375,9.31263887 L17.09375,8.90638887 C17.09375,8.90638887 16.289063,10.1993579 15.6875,10.5001389 C15.289063,10.6993579 15.113281,10.8126389 14.8125,10.8126389 L14.3125,10.8126389 C13.3125,10.7110769 12.695313,10.5079519 12.59375,10.4063889 C12.394531,10.2071699 12,8.00013887 12,8.00013887 Z" id="Shape"></path>
</svg>
