<?xml version="1.0" encoding="UTF-8"?>
<svg width="24px" height="24px" viewBox="0 0 24 24" version="1.1" xmlns="http://www.w3.org/2000/svg" xmlns:xlink="http://www.w3.org/1999/xlink">
    <path fill="#4C4C4C" d="M13.898438,10.800781 C13.101563,9 14.398438,6.398438 18.199219,6.398438 C20.898438,6.398438 22,8.5 22,10.5 C22,13.5 18.800781,14.699219 18.800781,14.699219 C18.800781,14.699219 17.199219,20 12.300781,20 C10.601563,20 9.601563,19.800781 8.898438,19.699219 C8.199219,19.699219 7.601563,20 7.199219,20 C6.800781,20 4.300781,18.300781 3.5,16.101563 C2.199219,12.898438 2.101563,10.398438 2,9.101563 C1.898438,7.300781 2.199219,6.101563 3.101563,5.300781 C3.699219,4.800781 4.398438,4.101563 5.199219,4 C6.101563,3.898438 6.5,4.300781 7.101563,4.800781 C7.601563,5.199219 8.101563,5.800781 8.398438,6.199219 C8.5,6.398438 8.5,6.699219 8.300781,6.800781 C6.898438,8.101563 5.800781,8.101563 5.5,7.898438 C5,7.398438 4.5,7.699219 4.699219,8.199219 C4.898438,8.601563 5.199219,10.101563 6.398438,11.199219 C7.800781,12.398438 8.199219,13.5 8.601563,14.398438 C8.800781,13.5 9.5,10.199219 13.898438,10.800781 Z" id="Shape"></path>
</svg>
