<?xml version="1.0" encoding="UTF-8"?>
<svg width="24px" height="24px" viewBox="0 0 24 24" version="1.1" xmlns="http://www.w3.org/2000/svg" xmlns:xlink="http://www.w3.org/1999/xlink">
    <path fill="#ffffff" d="M19.918,2 C18.766,2 17.832,2.934 17.832,4.082 C17.832,5.234 18.766,6.168 19.918,6.168 C21.066,6.168 22,5.234 22,4.082 C22,2.934 21.066,2 19.918,2 Z M12.789,2.836 C12.75,2.836 12.711,2.844 12.672,2.848 L8.504,3.684 C8.062,3.77 7.77,4.191 7.844,4.637 C7.918,5.078 8.328,5.387 8.773,5.328 L12.781,4.844 L14.016,6.168 L10.438,9.012 C9.852,9.398 9.5,10.051 9.5,10.75 C9.5,11.25 9.68,11.734 10.008,12.109 L12.309,14.988 L7.832,15.332 L7.809,15.336 C7.504,15.324 7.219,15.484 7.062,15.75 C6.91,16.016 6.914,16.344 7.074,16.605 C7.234,16.867 7.527,17.02 7.832,17 L14.031,17 C14.953,17 15.574,15.98 15.203,15.164 L15.215,15.152 L13.668,11.719 L16.27,9.66 L17.031,11.391 C17.051,11.469 17.082,11.539 17.125,11.605 L17.129,11.617 L17.133,11.617 C17.285,11.855 17.551,12 17.832,12 L21.168,12 C21.469,12.004 21.746,11.848 21.898,11.59 C22.051,11.332 22.055,11.008 21.902,10.75 C21.754,10.488 21.473,10.332 21.172,10.332 L18.473,10.113 L17.805,7.09 C17.793,7.004 17.773,6.918 17.75,6.836 C17.602,6.332 17.27,5.902 16.824,5.633 L13.336,3 C13.18,2.883 12.984,2.824 12.789,2.836 Z M4.5,7 L3.668,7.832 L8.406,7.832 L9.453,7 L4.5,7 Z M2,9.5 L2,10.332 L7.039,10.332 C7.074,10.047 7.133,9.77 7.23,9.5 L2,9.5 Z M2.832,12 L3.668,12.832 L7.656,12.832 C7.477,12.57 7.328,12.293 7.223,12 L2.832,12 Z M11.168,18.668 L9.672,20.66 C9.559,20.805 9.5,20.984 9.5,21.168 C9.5,21.625 9.875,22 10.332,22 C10.578,22 10.812,21.891 10.969,21.707 L10.973,21.703 L13.582,18.668 L11.168,18.668 Z" id="icons8-exercise"></path>

</svg>
