<svg xmlns="http://www.w3.org/2000/svg" width="24" height="24" viewBox="0 0 24 24">
  <path fill="#ffffff" d="M4.96875,2 L2,2.5 L3.1875,9.375 L6.125,8.875 L5.625,5.84375 C6.035156,5.722656 6.492188,5.613281 7.03125,5.5 L7.03125,7.09375 C7.03125,8.945313 7.738281,10.707031 9.03125,12 L10.03125,15.40625 L8.0625,19 C8.019531,19.03125 7.980469,19.070313 7.9375,19.09375 L3.21875,22 L6.9375,22 L8.9375,20.6875 C9.136719,20.585938 9.332031,20.386719 9.53125,20.1875 L11.625,17.8125 L12.125,17.59375 C13.226563,17.195313 14.335938,17.195313 15.4375,17.59375 C15.835938,17.695313 16.125,18.101563 16.125,18.5 L16.125,22 L18.125,22 L18.125,18.59375 C18.125,17.292969 17.324219,16.210938 16.125,15.8125 L14.5,15.25 L15.28125,11.71875 C16.410156,10.457031 17.03125,8.816406 17.03125,7.09375 L17.03125,5.5 C17.539063,5.605469 17.980469,5.699219 18.375,5.8125 L17.875,8.875 L20.8125,9.40625 L22,2.5 L19.03125,2 L18.5625,4.84375 C17.066406,4.417969 14.863281,4 12.03125,4 C9.152344,4 6.933594,4.441406 5.4375,4.875 L4.96875,2 Z M12.03125,5 C13.144531,5 14.128906,5.082031 15.03125,5.1875 C15.023438,5.261719 15.023438,5.332031 15.03125,5.40625 L15.03125,7.09375 C15.03125,8.445313 14.53125,9.6875 13.625,10.59375 L13.21875,11 L10.84375,11 L10.4375,10.59375 C9.53125,9.6875 9.03125,8.445313 9.03125,7.09375 L9.03125,5.40625 C9.039063,5.332031 9.039063,5.261719 9.03125,5.1875 C9.933594,5.082031 10.917969,5 12.03125,5 Z M12.03125,6 C10.925781,6 10.03125,6.894531 10.03125,8 C10.03125,9.105469 10.925781,10 12.03125,10 C13.136719,10 14.03125,9.105469 14.03125,8 C14.03125,6.894531 13.136719,6 12.03125,6 Z"/>
</svg>
