<?xml version="1.0" encoding="UTF-8"?>
<svg width="24px" height="24px" viewBox="0 0 24 24" version="1.1" xmlns="http://www.w3.org/2000/svg" xmlns:xlink="http://www.w3.org/1999/xlink">
    <path fill="#ffffff" d="M18.0845207,5 C16.4755207,5 15.1665207,6.309 15.1665207,7.918 C15.1665207,9.527 16.4755207,10.836 18.0845207,10.836 C19.6935207,10.836 21.0025207,9.527 21.0025207,7.918 C21.0025207,6.309 19.6935207,5 18.0845207,5 Z M8.51452071,5.836 C8.38152071,5.832 8.24852071,5.863 8.12752071,5.922 L3.12752071,8.422 C2.73652071,8.625 2.56852071,9.094 2.74452071,9.496 C2.92052071,9.898 3.37752071,10.098 3.79152071,9.949 L3.78352071,9.957 L8.08052071,8.672 L9.90052071,11.547 L3.79152071,15.031 C4.20552071,15.313 5.20552071,15.848 6.83452071,15.848 C7.94752071,15.848 9.06852071,15.328 10.3615207,14.727 C11.9205207,14 13.6865207,13.188 15.8265207,13.145 L13.5685207,10.859 C13.5615207,10.852 13.5535207,10.844 13.5455207,10.832 L9.11152071,6.098 C8.95552071,5.934 8.74052071,5.84 8.51452071,5.836 Z M16.0025207,14.801 C14.1075207,14.801 12.5255207,15.559 11.0645207,16.238 C9.60752071,16.914 8.27552071,17.516 6.83452071,17.516 C5.30752071,17.516 4.19352071,17.133 3.45952071,16.766 C2.72552071,16.395 2.42852071,16.082 2.42852071,16.082 C2.10452071,15.754 1.57252071,15.75 1.24852071,16.074 C0.920520705,16.398 0.916520705,16.93 1.24052071,17.254 C1.24052071,17.254 1.77552071,17.781 2.70952071,18.254 C3.64352071,18.723 5.02552071,19.184 6.83452071,19.184 C8.72952071,19.184 10.3115207,18.426 11.7685207,17.746 C13.2295207,17.07 14.5615207,16.469 16.0025207,16.469 C19.0225207,16.469 21.3385207,18.168 21.3385207,18.168 C21.5725207,18.363 21.8965207,18.41 22.1825207,18.293 C22.4635207,18.176 22.6585207,17.914 22.6895207,17.609 C22.7215207,17.305 22.5845207,17.008 22.3305207,16.836 C22.3305207,16.836 19.6465207,14.801 16.0025207,14.801 Z" id="icons8-marathon_swimming"></path>
</svg>
