<svg xmlns="http://www.w3.org/2000/svg" viewBox="0 0 66.86 62.83"><defs><style>.cls-1{fill:#fff;}</style></defs><title>icon-setting</title><g id="Layer_2" data-name="Layer 2"><g id="Layer_1-2" data-name="Layer 1"><g id="Layer_1-2-2" data-name="Layer 1-2"><path class="cls-1" d="M33,17.65a13.79,13.79,0,0,0,.45,27.57h.46A13.79,13.79,0,0,0,33,17.65Zm6.87,19.78a8.79,8.79,0,1,1,2.37-6.3,8.79,8.79,0,0,1-2.37,6.3Z"/><path class="cls-1" d="M59.59,21.08H57.81a1.52,1.52,0,0,1-.88-.49l-3.4-5.46a1.56,1.56,0,0,1,0-1l.78-1.55a7.2,7.2,0,0,0-3-9.51L47.16.85a7.18,7.18,0,0,0-9.63,2.78l-.86,1.52a1.49,1.49,0,0,1-.86.52l-6.38.21a1.56,1.56,0,0,1-.9-.46L27.53,4A7.2,7.2,0,0,0,17.8,1.82l-4,2.49A7.21,7.21,0,0,0,11.43,14l.88,1.5a1.56,1.56,0,0,1,0,1l-3,5.66a1.53,1.53,0,0,1-.85.55l-1.73.1A7.2,7.2,0,0,0,0,30.16l.15,4.7A7.19,7.19,0,0,0,7.3,41.77H9.08a1.58,1.58,0,0,1,.88.49l3.4,5.46a1.56,1.56,0,0,1,0,1l-.78,1.55a7.2,7.2,0,0,0,3,9.51L19.73,62a6.91,6.91,0,0,0,3.33.83,7.14,7.14,0,0,0,6.24-3.6l.86-1.52a1.67,1.67,0,0,1,.86-.52L37.43,57a1.56,1.56,0,0,1,.9.46l1,1.46A7.18,7.18,0,0,0,49.06,61l4-2.49a7.2,7.2,0,0,0,2.37-9.68l-.88-1.5a1.56,1.56,0,0,1,0-1l3-5.66a1.66,1.66,0,0,1,.85-.55l1.73-.1a7.19,7.19,0,0,0,6.73-7.36L66.71,28A7.19,7.19,0,0,0,59.59,21.08Zm.28,14-1.73.1a6.43,6.43,0,0,0-5,3.18l-3,5.67a6.41,6.41,0,0,0,.11,5.89l.88,1.51a2.17,2.17,0,0,1-.7,2.88l-4,2.49a2.15,2.15,0,0,1-2.92-.64l-1-1.46A6.39,6.39,0,0,0,37.28,52l-6.43.21a6.42,6.42,0,0,0-5,3L25,56.72a2.16,2.16,0,0,1-2.87.83L18,55.33a2.16,2.16,0,0,1-.9-2.86l.78-1.55A6.43,6.43,0,0,0,17.57,45l-3.4-5.46A6.43,6.43,0,0,0,9,36.73H7.27a2.19,2.19,0,0,1-2.15-2.07L5,30a2.16,2.16,0,0,1,2-2.21l1.73-.1a6.38,6.38,0,0,0,5-3.18l3-5.67A6.41,6.41,0,0,0,16.62,13l-.86-1.48a2.21,2.21,0,0,1,.7-2.88l4-2.49a2.15,2.15,0,0,1,2.92.64l1,1.46a6.37,6.37,0,0,0,5.23,2.71L36,10.66a6.4,6.4,0,0,0,5-3l.87-1.52h0a2.19,2.19,0,0,1,2.87-.83L48.9,7.53a2.16,2.16,0,0,1,.9,2.86L49,11.94a6.42,6.42,0,0,0,.27,5.89l3.4,5.46a6.33,6.33,0,0,0,5.16,2.84h1.74a2.19,2.19,0,0,1,2.17,2.07l.15,4.7a2.15,2.15,0,0,1-2,2.16Z"/></g></g></g></svg>