<svg xmlns="http://www.w3.org/2000/svg" viewBox="0 0 62.2 60.52"><defs><style>.cls-1{fill:#959595;}</style></defs><title>icon-unselect-1</title><g id="Layer_2" data-name="Layer 2"><g id="Layer_1-2" data-name="Layer 1"><g id="Layer_1-2-2" data-name="Layer 1-2"><path class="cls-1" d="M10.82,60.51a2.51,2.51,0,0,0,1.77-.73l14-13.93a2.51,2.51,0,0,0-3.54-3.55L10.65,54.65,7.34,52,20.11,39.23a2.5,2.5,0,0,0-3.53-3.54L1.85,50.37a2.5,2.5,0,0,0,0,3.54l.2.17,7.2,5.86A2.43,2.43,0,0,0,10.82,60.51Z"/><path class="cls-1" d="M59.31,6.89a2.52,2.52,0,0,0-2.25.68l-6.23,6.2L48.4,11.3l6.21-6.15a2.49,2.49,0,0,0,0-3.52h0a2.6,2.6,0,0,0-.8-.55A13.83,13.83,0,0,0,38.75,4a13.58,13.58,0,0,0-3,15l.07.16c.28.55,2.78,5.29,7,7a9.93,9.93,0,0,0,5.44,1.43,14.07,14.07,0,0,0,9.87-4.31,13.61,13.61,0,0,0,3-15A2.54,2.54,0,0,0,59.31,6.89ZM54.68,19.77c-4.28,4.14-8.5,2.6-9,2.22a2.82,2.82,0,0,0-.78-.43c-2.13-.73-4-3.48-4.53-4.56a8.61,8.61,0,0,1,1.9-9.42,8.9,8.9,0,0,1,5.36-2.51L43.05,9.55a2.5,2.5,0,0,0,0,3.54h0l6,6a2.49,2.49,0,0,0,3.53,0l4.57-4.55A8.56,8.56,0,0,1,54.68,19.77Z"/><path class="cls-1" d="M60.77,51a2.56,2.56,0,0,0-.72-1.77L37.28,26.91a2.51,2.51,0,0,0-3.52,0l-7,7a2.5,2.5,0,0,0,0,3.54h0L49.52,59.79a2.49,2.49,0,0,0,3.52,0l7-7A2.53,2.53,0,0,0,60.77,51Zm-9.52,3.5L32.05,35.68l3.46-3.46L54.72,51Z"/><path class="cls-1" d="M7.4,17.3h.3a2.48,2.48,0,0,0,1.76-.73l1.72-1.72L24,27.72a2.5,2.5,0,0,0,3.54-3.54h0L14.72,11.38l1.62-1.61a2.5,2.5,0,0,0,0-3.53,2.63,2.63,0,0,0-.49-.39L7.28.71a2.52,2.52,0,0,0-3,.36L.75,4.54A2.5,2.5,0,0,0,.37,7.63l5.22,8.52A2.45,2.45,0,0,0,7.4,17.3ZM6.4,6l4.16,2.49L9.42,9.6h0L8.18,10.84,5.65,6.71Z"/></g></g></g></svg>