<svg xmlns="http://www.w3.org/2000/svg" viewBox="0 0 59.48 57.38"><defs><style>.cls-1{fill:none;}</style></defs><title>icon-p3</title><g id="Layer_2" data-name="Layer 2"><g id="Layer_1-2" data-name="Layer 1"><path class="cls-1" d="M5,23.16V44.63a7.77,7.77,0,0,0,7.74,7.75h34a7.76,7.76,0,0,0,7.75-7.75V23.16Z"/><path class="cls-1" d="M54.48,18.16V12.75A7.77,7.77,0,0,0,46.74,5h-34A7.76,7.76,0,0,0,5,12.75v5.41Z"/><path d="M12.74,57.38h34A12.76,12.76,0,0,0,59.48,44.63V12.75A12.76,12.76,0,0,0,46.74,0h-34A12.76,12.76,0,0,0,0,12.75V44.63A12.76,12.76,0,0,0,12.74,57.38Zm34-5h-34A7.76,7.76,0,0,1,5,44.63V23.16H54.48V44.63A7.77,7.77,0,0,1,46.74,52.38ZM12.74,5h34a7.76,7.76,0,0,1,7.75,7.75v5.41H5V12.75A7.77,7.77,0,0,1,12.74,5Z"/></g></g></svg>