<?xml version="1.0" encoding="utf-8"?>
<!-- Generator: Adobe Illustrator 23.0.4, SVG Export Plug-In . SVG Version: 6.00 Build 0)  -->
<svg version="1.1" id="Layer_1" xmlns="http://www.w3.org/2000/svg" xmlns:xlink="http://www.w3.org/1999/xlink" x="0px" y="0px"
	 viewBox="0 0 65.5 57.5" style="enable-background:new 0 0 65.5 57.5;" xml:space="preserve">
<style type="text/css">
	.st0{fill:#B7B7B7;}
</style>
<title>icon-chat-5</title>
<g>
	<g id="Layer_1-2">
		<g id="Layer_1-2-2">
			<g id="Layer_1-2-2-2">
				<path class="st0" d="M51.1,57.4c7.9,0,14.3-6.5,14.3-14.4V14.4C65.5,6.4,59,0,51.1,0c0,0-0.1,0-0.1,0L22.4,0.1
					c-7.9,0-14.3,6.5-14.3,14.4v28.7c0,2.2-2.9,4.9-4.9,6.7c-2.2,1.9-3.8,3.5-3,5.6s3.2,2.1,4.2,2.1L51.1,57.4L51.1,57.4z M60.5,43
					c0,5.2-4.2,9.4-9.3,9.4L7.7,52.5c2.5-2.4,5.4-5.5,5.4-9.4V14.5c0-5.2,4.2-9.4,9.3-9.4L51,5c5.2,0,9.4,4.2,9.4,9.4L60.5,43z"/>
			</g>
		</g>
		<polygon class="st0" points="18.6,4 58.3,4 62.1,11.6 62.1,47.3 54.9,53.6 10.8,53.6 5.7,53.6 11.4,38 11.2,10.1 		"/>
	</g>
</g>
</svg>
