<svg id="Layer_1" data-name="Layer 1" xmlns="http://www.w3.org/2000/svg" viewBox="0 0 589 100">
  <path fill="none"  d="M42.61,26.43H27.8v20H42.61a10,10,0,0,0,0-19.95Z"/>
  <path fill="none" d="M459,26.43H444.2v20H459a10,10,0,1,0,0-19.95Z"/>
  <path fill="#eeeeee" d="M45.29,13.78H12.87V87.16H27.8V59.67l17.49,0a22.93,22.93,0,1,0,0-45.86ZM42.61,46.38H27.8v-20H42.61a10,10,0,0,1,0,19.95Z"/>
  <polygon fill="#eeeeee" points="108.79 53.11 144.38 53.11 144.38 41.92 108.79 41.92 108.79 26.43 146.87 26.43 146.87 13.78 94.64 13.78 94.64 87.16 149.05 87.16 149.05 73.01 108.79 73.01 108.79 53.11"/>
  <polygon fill="#eeeeee" points="363.31 53.11 398.91 53.11 398.91 41.92 363.31 41.92 363.31 26.43 401.4 26.43 401.4 13.78 349.17 13.78 349.17 87.16 403.57 87.16 403.57 73.01 363.31 73.01 363.31 53.11"/>
  <polygon fill="#eeeeee" points="164.39 86.33 182.7 86.33 173.35 70.08 164.39 86.33"/>
  <polygon fill="#eeeeee" points="197.57 26.15 232.21 86.33 244.39 86.33 204.39 13.78 197.57 26.15"/>
  <polygon fill="#eeeeee" points="184.66 49.55 205.83 86.33 210.19 86.33 186.79 45.69 184.66 49.55"/>
  <path fill="#eeeeee" d="M470.49,57.88a22.93,22.93,0,0,0-8.81-44.1H429.27V87.16H444.2V59.67l13.89,0,18,27.51h15.39S477.45,62.38,470.49,57.88ZM459,46.38H444.2v-20H459a10,10,0,1,1,0,19.95Z"/>
  <polygon fill="#eeeeee" points="325.85 13.78 305.95 13.78 276.93 44.05 276.93 13.78 262.42 13.78 262.42 86.33 276.52 86.33 276.52 63.53 287.3 52.75 309.27 87.16 327.92 87.16 298.07 44.05 325.85 13.78"/>
  <path fill="#eeeeee" d="M536.43,38.24c-10.16-2.7-7.88-15.34,4.15-15.75,13.26-.46,13.26,11.19,13.26,11.19h15.75s-.42-22.8-24.87-22.8-29.21,13.47-29,22.8c.21,9.95,7.88,15.54,30.68,20.31,16.64,3.48,12.44,20.77-3.73,20.77-14.92,0-15.75-14.13-15.75-14.13H511.15c1.24,12.44,10.36,26.53,30.68,26.53s29.85-9.74,29.85-25.7C571.67,45.91,548.38,41.41,536.43,38.24Z"/>
</svg>
